<svg xmlns="http://www.w3.org/2000/svg" viewBox="0 0 937.6 240.6"><defs><style>.cls-1{fill:#6722ff;}</style></defs><g id="Layer_2" data-name="Layer 2"><g id="Layer_1-2" data-name="Layer 1"><g id="Layer_2-2" data-name="Layer 2"><g id="Vrstva_1" data-name="Vrstva 1"><path class="cls-1" d="M187.6,1.8A32.18,32.18,0,0,0,158,21.5L109.6,146.8,61.8,23.1C56.6,9.6,45.3,1.8,31,1.8,13.6,1.8,0,15.3,0,32.5A38.77,38.77,0,0,0,3.3,46.7L73.8,215.4c6.3,15,18.2,23.3,33.5,23.3h3.1c15.3,0,27.2-8.3,33.5-23.3L215,45.3a34.54,34.54,0,0,0,3.1-13.4C218.3,15,204.8,1.8,187.6,1.8ZM661,2.4c-11.5,0-20.9,5.7-28.8,17.3l-48,68.4-47-67.7C532,12.8,523.4,2.7,507.7,2.7c-17.1,0-31,13.5-31,30.1A35.61,35.61,0,0,0,484,54.1l68.9,93.5v59.5a31,31,0,1,0,62,0V146.7l68.9-93c5-7,7.5-14,7.5-20.9.1-17.9-12.4-30.4-30.3-30.4ZM348.6,0A120.3,120.3,0,1,0,468.9,120.3,120.29,120.29,0,0,0,348.6,0Zm0,179.4a59.2,59.2,0,1,1,59.2-59.2A59.19,59.19,0,0,1,348.6,179.4ZM817.3,0A120.3,120.3,0,1,0,937.6,120.3,120.29,120.29,0,0,0,817.3,0Zm0,179.4a59.2,59.2,0,1,1,59.2-59.2A59.19,59.19,0,0,1,817.3,179.4Z"/></g></g></g></g></svg>