<svg xmlns="http://www.w3.org/2000/svg" viewBox="0 0 258.2 119.17"><defs><style>.cls-1{fill:#cf3339;}.cls-2{fill:#fff;}</style></defs><g id="Layer_2" data-name="Layer 2"><g id="Vrstva_1" data-name="Vrstva 1"><rect class="cls-1" width="258.2" height="119.17"/><path class="cls-2" d="M29.73,38.14H40.56V43.8a16.48,16.48,0,0,1,13.5-6.5c10.33,0,17.41,7.5,17.41,17.74V81H60.64V57c0-5.75-4.17-9.83-10-9.83s-10.08,4-10.08,9.83V81H29.73Z"/><polygon class="cls-2" points="136.85 38.14 148.51 38.14 160.34 69.71 172.25 38.14 183.16 38.14 166.09 81.04 153.92 81.04 136.85 38.14"/><path class="cls-2" d="M217.64,75.71a18.16,18.16,0,0,1-13.91,6.17C192,81.88,183,72.22,183,59.56s9-22.24,20.74-22.24a18,18,0,0,1,13.91,6.25V38.16h10.83v42.9H217.64ZM205.9,72c6.66,0,11.74-5.33,11.74-12.41s-5.08-12.33-11.74-12.33-11.66,5.33-11.66,12.33S199.23,72,205.9,72"/><path class="cls-2" d="M78,69.69a5,5,0,0,1-.34-1.47c0,.52.73,2.29,6.87,8.41,5.14,5.12,9,9.12,8.37,9.48s-3.77-1.44-6.62-4A30.58,30.58,0,0,1,78,69.69"/><path class="cls-2" d="M110.1,89.78a31.2,31.2,0,0,1-9.92-.52c2.1.33-.22-3.34-1.87-5.55a139.29,139.29,0,0,0-9.34-11c-5.52-6-12.72-12.94-12.72-12.94a30.33,30.33,0,0,1,1.81-10.5s11.27,10.91,20.72,21.5c6.1,6.84,9.88,11.91,11.62,15,1,1.72,1.56,3.77-.3,4"/><path class="cls-2" d="M127.88,42.4c-5.52-6.13-11.1-11.51-11.1-11.51a30.28,30.28,0,0,1,20.05,23.8,1.42,1.42,0,0,1-.06.91c.26-.54,0-3.3-8.89-13.2"/><path class="cls-2" d="M136.92,64a29.55,29.55,0,0,1-3.27,9.93c.22-.41.22-1.64-1.57-4.68-3.44-5.81-12.4-16-17.55-21.5C107.2,40,97.73,30.62,97.73,30.62a31.9,31.9,0,0,1,4.93-1.09,22.06,22.06,0,0,1,5.68-.17s15.08,15.12,20.21,21.37S137.19,62,136.92,64"/><path class="cls-2" d="M127.75,81.6a31.19,31.19,0,0,1-8.24,5.58c.39-.31,1.16-1.55-1.84-6A159,159,0,0,0,103.33,63.3c-6.4-6.81-21.16-21.7-21.16-21.7a30.6,30.6,0,0,1,7.74-7.36S98.43,43,111.17,56.33a122.72,122.72,0,0,1,15.55,19.49c1.26,2.06,2.3,4.58,1,5.78"/></g></g></svg>