<?xml version="1.0" encoding="utf-8"?>
<!-- Generator: Adobe Illustrator 24.1.0, SVG Export Plug-In . SVG Version: 6.00 Build 0)  -->
<svg version="1.1" id="Vrstva_1" xmlns="http://www.w3.org/2000/svg" xmlns:xlink="http://www.w3.org/1999/xlink" x="0px" y="0px"
	 viewBox="0 0 256 80" style="enable-background:new 0 0 256 80;" xml:space="preserve">
<style type="text/css">
	.st0{fill:#FFFFFF;}
	.st1{fill:#E00521;}
</style>
<rect x="128" class="st0" width="128" height="80"/>
<rect class="st1" width="128" height="80"/>
<path class="st0" d="M29.7,27.7H17.1v-9.2h35.6v9.2H40.1v33.7H29.7V27.7z"/>
<path class="st0" d="M63.8,18.5h10.1l18.7,25.4V18.5H103v42.9H92.9L74.2,36.1v25.4H63.8V18.5z"/>
<path d="M168,63.3c-3.2,0.1-6.4-0.5-9.5-1.7c-2.6-1-4.9-2.6-6.8-4.7c-1.9-2.1-3.3-4.6-4.1-7.3c-1-3-1.4-6.2-1.4-9.3
	c0-3.3,0.6-6.6,1.8-9.7c2.3-5.7,6.9-10.1,12.7-12.1c3.1-1.1,6.3-1.7,9.6-1.7c1.4,0,2.8,0.1,4.1,0.3c1.3,0.2,2.5,0.4,3.6,0.6
	s2.1,0.4,3.1,0.6c0.8,0.2,1.6,0.3,2.5,0.4l-0.7,12.5h-7.1l-1.8-8.3c-0.2-0.2-0.4-0.4-0.6-0.6c-0.3-0.2-0.6-0.4-0.9-0.6
	c-0.4-0.2-0.9-0.3-1.3-0.4c-0.6-0.1-1.3-0.2-1.9-0.1c-1.6,0-3.1,0.3-4.5,1.1c-1.4,0.8-2.6,1.9-3.5,3.2c-1.1,1.7-1.9,3.6-2.3,5.5
	c-0.6,2.6-0.8,5.3-0.8,8c0,2.5,0.2,5,0.6,7.5c0.4,2.2,1.1,4.3,2,6.3c0.8,1.7,1.9,3.2,3.3,4.4c1.3,1.1,3,1.7,4.7,1.6
	c0.8,0,1.6,0,2.4-0.2c0.6-0.1,1.2-0.2,1.7-0.4c0.4-0.1,0.8-0.3,1.2-0.6c0.3-0.2,0.5-0.4,0.7-0.7l2.6-7l6,0.1l-0.4,10.8
	c-0.9,0.1-1.8,0.2-2.7,0.5l-3.1,0.8c-1.2,0.3-2.5,0.5-4,0.8C171.6,63.2,169.8,63.3,168,63.3z"/>
<path d="M193.9,62.6l-2.2-3.8l22.2-33.5l3.6-4l-14.1,0.9l-3.4,8.5l-5.9-0.9l1.5-12.7h32.3l1.6,3.9L208,54.4l-3.9,3.8l16.7-1.3
	l3.7-9.2l5.7,1.2l-1.7,13.7L193.9,62.6z"/>
</svg>
